# xmcd
#
# Track frame offsets:
#	150
#	14299
#	28018
#	43305
#	55085
#	68020
#	86196
#	101956
#	113810
#	125097
#
# Disc length: 1847 seconds
#
# Revision: 3
# Processed by: cddbd v1.5.2PL0 Copyright (c) Steve Scherf et al.
# Submitted via: audiograbber 1.83.01
#
DISCID=8c07350a
DTITLE=Curt and Roland - Tillbaka i Nashville
DYEAR=1977
DGENRE=Country
TTITLE0=Sackeus
TTITLE1=Allt är förlåtet och glömt
TTITLE2=HHimmelriket tillhör barnen
TTITLE3=Jesus, o vilket härligt namn
TTITLE4=Kom, låt oss gå idag
TTITLE5=Vilken dag
TTITLE6=Jag är vägen, sanningen och livet
TTITLE7=Spirit born
TTITLE8=Kristen - Ja!
TTITLE9=Solen sakta sjunker ner
EXTD=CUROLCD 802-3\nSweden
EXTT0=
EXTT1=
EXTT2=
EXTT3=
EXTT4=
EXTT5=
EXTT6=
EXTT7=
EXTT8=
EXTT9=
PLAYORDER=
